<?xml version="1.0" standalone="no"?><!DOCTYPE svg PUBLIC "-//W3C//DTD SVG 1.1//EN" "http://www.w3.org/Graphics/SVG/1.1/DTD/svg11.dtd"><svg t="1608532475317" class="icon" viewBox="0 0 1024 1024" version="1.1" xmlns="http://www.w3.org/2000/svg" p-id="4100" xmlns:xlink="http://www.w3.org/1999/xlink" width="64" height="64"><defs><style type="text/css"></style></defs><path d="M599.88992 651.9808a40.1408 40.1408 0 1 0-40.26368-40.3456 40.11008 40.11008 0 0 0 40.26368 40.3456m340.1216 266.9568c-203.50976 3.072-416.1024-39.2192-578.80576-181.76a4.98688 4.98688 0 0 1-1.46432-3.9936 5.74464 5.74464 0 0 1 5.45792-6.0416l165.5808-29.3888-144.9984-75.4688a10.99776 10.99776 0 0 1-1.95584-16.0768s176.78336-170.3936 556.15488-166.5024v479.232zM288.02048 671.9488l-69.95968-91.5456-19.51744 123.6992s20.48-14.4384 27.21792-19.1488c1.42336 6.144 3.39968 14.1312 3.39968 14.1312a44.5952 44.5952 0 0 1-14.41792 33.1776 45.89568 45.89568 0 0 1-29.93152 12.0832 44.19584 44.19584 0 0 1-31.8464-12.8 45.6704 45.6704 0 0 1-13.6704-31.6416l1.14688-130.2528 0.77824-146.432h0.32768v-5.3248a40.69376 40.69376 0 0 0 0-74.4448V104.96h-32.47104V343.04a40.78592 40.78592 0 0 0 0 75.1616v5.0176h0.12288c-0.2048 28.0576-1.39264 151.552-1.39264 151.552l-1.60768 124.0064-0.18432 1.4336a78.20288 78.20288 0 0 0 156.40576-0.8192 60.11904 60.11904 0 0 0-3.0208-24.576z" p-id="4101"></path></svg>