<?xml version="1.0" standalone="no"?><!DOCTYPE svg PUBLIC "-//W3C//DTD SVG 1.1//EN" "http://www.w3.org/Graphics/SVG/1.1/DTD/svg11.dtd"><svg t="1608532048660" class="icon" viewBox="0 0 1024 1024" version="1.1" xmlns="http://www.w3.org/2000/svg" p-id="2908" xmlns:xlink="http://www.w3.org/1999/xlink" width="64" height="64"><defs><style type="text/css"></style></defs><path d="M699.35104 465.3056c-3.35872-4.9152-83.64032-120.09472-186.44992-120.09472S329.80992 460.3904 326.4512 465.3056l-5.40672 8.192 5.40672 8.192c3.35872 4.9152 83.64032 120.09472 186.44992 120.09472s183.0912-115.83488 186.44992-120.75008l5.40672-8.192zM512.90112 573.44c-73.728 0-138.36288-75.20256-157.61408-100.10624 19.2512-24.576 83.5584-100.10624 157.61408-100.10624S651.264 448.26624 670.5152 473.16992C651.264 498.0736 586.9568 573.44 512.90112 573.44z" fill="#1296db" p-id="2909"></path><path d="M512.90112 404.52096a68.64896 68.64896 0 1 0 68.56704 68.64896 68.73088 68.73088 0 0 0-68.56704-68.64896z m0 109.44512a40.96 40.96 0 1 1 40.96-40.96 40.96 40.96 0 0 1-40.96 40.96z" fill="#1296db" p-id="2910"></path><path d="M690.33984 671.744H333.66016a176.86528 176.86528 0 0 1 0-353.73056h10.48576v-2.21184a168.50944 168.50944 0 0 1 337.01888 0v2.21184h9.17504a176.86528 176.86528 0 0 1 0 353.73056zM333.66016 345.94816a149.01248 149.01248 0 0 0 0 298.02496h356.67968a149.01248 149.01248 0 0 0 0-298.02496H667.648a13.9264 13.9264 0 0 1-13.9264-13.9264v-16.384a140.65664 140.65664 0 0 0-281.31328 0v16.384a13.9264 13.9264 0 0 1-13.9264 13.9264z" fill="#1296db" p-id="2911"></path></svg>