<?xml version="1.0" standalone="no"?><!DOCTYPE svg PUBLIC "-//W3C//DTD SVG 1.1//EN" "http://www.w3.org/Graphics/SVG/1.1/DTD/svg11.dtd"><svg t="1608532091754" class="icon" viewBox="0 0 1024 1024" version="1.1" xmlns="http://www.w3.org/2000/svg" p-id="3192" xmlns:xlink="http://www.w3.org/1999/xlink" width="64" height="64"><defs><style type="text/css"></style></defs><path d="M635.103971 232.655945H543.007993V218.319949c0-17.127996-13.847997-30.983993-30.975993-30.983993s-30.983993 13.855997-30.983993 30.983993v14.335996H388.896029c-63.743985 0-110.031974 41.99199-110.031974 99.863977 0 17.119996 13.855997 30.975993 30.983992 30.975993s30.983993-13.855997 30.983993-30.975993c0-36.095992 40.055991-37.911991 48.071989-37.911991h246.199942c8.015998 0 48.007989 1.816 48.007989 37.911991 0 17.119996 13.855997 30.975993 30.983993 30.975993s30.975993-13.855997 30.975992-30.975993c0-57.871986-46.255989-99.863977-109.967974-99.863977z" fill="#838384" p-id="3193"></path><path d="M708.887954 395.839907h-43.41599v-20.543995a30.959993 30.959993 0 0 0-30.983993-30.983993 30.959993 30.959993 0 0 0-30.975992 30.983993l0.016 20.543995H419.576022v-20.543995a30.959993 30.959993 0 0 0-30.983993-30.983993 30.959993 30.959993 0 0 0-30.983993 30.983993l0.016 20.543995h-42.49599a30.959993 30.959993 0 0 0-30.975993 30.975993 30.959993 30.959993 0 0 0 30.975993 30.983993h42.22399c3.287999 90.031979 28.967993 141.279967 80.431981 178.319958-13.911997 4.503999-37.191991 11.759997-57.367986 16.831996a30.959993 30.959993 0 0 0-22.503995 37.575991 30.959993 30.959993 0 0 0 37.575991 22.511995c33.455992-8.383998 72.911983-21.759995 74.871983-22.423995 14.607997-5.119999 28.303993-10.247998 41.17599-15.503996a858.079799 858.079799 0 0 0 41.47999 15.631996c1.664 0.536 41.11999 13.911997 74.567983 22.295995a30.975993 30.975993 0 0 0 37.575991-22.511995 30.959993 30.959993 0 0 0-22.503995-37.575991c-20.183995-5.071999-43.47999-12.335997-57.303986-16.799996 51.599988-37.063991 77.279982-88.311979 80.439981-178.351958h43.09599a30.959993 30.959993 0 0 0 30.975993-30.983993 30.959993 30.959993 0 0 0-30.975993-30.975993zM511.568 608.103857c-62.415985-28.759993-89.151979-63.287985-92.343978-150.303964h184.687956c-3.063999 87.02398-29.759993 121.519972-92.343978 150.303964z" fill="#838384" p-id="3194"></path><path d="M941.655899 201.311953c-76.023982-51.335988-111.119974-94.023978-150.199964-182.663957C786.063936 6.423998 773.631939-0.864 760.143942 0.312c-6.687998 0.632-25.327994 3.631999-50.103988 7.679998-57.999986 9.471998-155.079964 25.319994-201.159953 25.895994-52.943988 0-146.911966-16.607996-203.023953-26.527994-21.687995-3.815999-37.847991-6.623998-44.319989-7.263998-14.159997-1.056-27.111994 6.807998-32.103993 19.935995-35.655992 94.935978-72.135983 140.319967-144.575966 179.799958a30.959993 30.959993 0 0 0-16.159996 27.191994c0 485.735886 187.687956 620.503855 425.3039 791.167814a30.991993 30.991993 0 0 0 36.151992-0.024c246.815942-177.439958 425.1599-305.647928 425.1599-791.167814a31.071993 31.071993 0 0 0-13.655997-25.687994z m-429.591899 753.559823C284.800053 791.383815 134.800088 672.791842 130.752089 244.999943c69.999984-41.68799 111.239974-91.847978 147.423966-179.615958l16.879996 2.999999c58.143986 10.255998 155.439964 27.471994 213.83195 27.471994l3.535999-0.032c47.951989-0.608 144.039966-16.303996 207.599951-26.679994a6285.998527 6285.998527 0 0 1 24.559994-3.991999c38.063991 80.079981 78.447982 128.30397 148.695966 178.039958-3.663999 429.023899-153.719964 547.831872-381.215911 711.679833z" fill="#838384" p-id="3195"></path></svg>