<?xml version="1.0" standalone="no"?><!DOCTYPE svg PUBLIC "-//W3C//DTD SVG 1.1//EN" "http://www.w3.org/Graphics/SVG/1.1/DTD/svg11.dtd"><svg t="1608256685808" class="icon" viewBox="0 0 1024 1024" version="1.1" xmlns="http://www.w3.org/2000/svg" p-id="12975" xmlns:xlink="http://www.w3.org/1999/xlink" width="48" height="48"><defs><style type="text/css"></style></defs><path d="M856.688 177.424l-321.68-126.864a61.52 61.52 0 0 0-22.592-4.288 24 24 0 0 0-10.096 2.288 62.48 62.48 0 0 0-13.344 3.424l-321.6 126.864a63.312 63.312 0 0 0-40 59.392v90.64c0 271.472 132.512 516.16 345.824 638.56a77.488 77.488 0 0 0 38.4 10.288 24 24 0 0 0 9.6-2 77.424 77.424 0 0 0 29.76-9.744c141.36-81.104 249.904-218.368 305.6-386.512a24 24 0 0 0-45.568-15.088c-52 156.912-152.848 284.8-283.968 360a29.424 29.424 0 0 1-14.528 3.936 23.2 23.2 0 0 0-5.712 0.768 29.84 29.84 0 0 1-9.6-3.2c-198.4-113.856-321.68-342.592-321.68-596.928v-90.64a15.76 15.76 0 0 1 9.6-14.736l321.6-126.864a13.456 13.456 0 0 1 5.008-0.944 23.888 23.888 0 0 0 5.168-0.592c0.208 0 0.432 0 0.64 0.128l321.696 126.848a15.728 15.728 0 0 1 9.6 14.72v90.656a795.36 795.36 0 0 1-3.2 70.96 24 24 0 0 0 21.728 26.096q1.104 0.096 2.208 0.096a24 24 0 0 0 23.888-21.824c2.272-24.912 3.424-50.256 3.424-75.328v-90.656a64 64 0 0 0-40.176-59.456z" fill="#666666" p-id="12976"></path><path d="M409.76 547.728a24 24 0 0 0 31.92-11.52l15.248-32.496 17.6 34.48a28.672 28.672 0 0 0 25.424 17.6h1.12a28.608 28.608 0 0 0 25.6-15.856l24.096-41.024 20.208 40.512a24 24 0 0 0 21.488 13.296h0.288a24 24 0 0 0 21.44-13.808l36.48-77.84a24 24 0 0 0-43.472-20.384l-15.408 32.912-13.28-26.608a28.8 28.8 0 0 0-25.84-17.28 30.208 30.208 0 0 0-26.192 15.792l-24.304 41.376-19.376-38.176a28.8 28.8 0 0 0-24.48-17.488 29.136 29.136 0 0 0-28.064 16.512l-32 68.08a24 24 0 0 0 11.504 31.92z" fill="#666666" p-id="12977"></path><path d="M268.592 582.992a68.8 68.8 0 0 0 85.184 67.456 224.704 224.704 0 0 0 322.928 1.728c0.272-0.256 0.336-0.624 0.592-0.896a68.688 68.688 0 0 0 11.2 1.136 69.36 69.36 0 0 0 48.912-118.592 223.92 223.92 0 0 0-154.24-254.224 69.072 69.072 0 0 0-136.912 0.592 225.216 225.216 0 0 0-152.864 250.032 68.976 68.976 0 0 0-24.8 52.768z m48 0a21.424 21.424 0 1 1 21.424 21.424 21.424 21.424 0 0 1-21.424-21.424z m371.968 21.424a21.424 21.424 0 1 1 21.44-21.424 21.408 21.408 0 0 1-21.44 21.424z m-173.76-336.416a21.136 21.136 0 0 1 20.688 17.792 23.136 23.136 0 0 0-2.592 6.72 23.664 23.664 0 0 0-0.176 8 21.104 21.104 0 0 1-17.92 10.384 21.424 21.424 0 1 1 0-42.832z m-58 59.392a69.168 69.168 0 0 0 116.288-0.544 177.824 177.824 0 0 1 120 167.632 179.712 179.712 0 0 1-1.136 19.44c-1.168 0-2.256-0.336-3.424-0.336a69.488 69.488 0 0 0-69.424 69.408 68.688 68.688 0 0 0 15.312 42.96 176.768 176.768 0 0 1-240.208-2.576 69.024 69.024 0 0 0-54.4-109.616 175.616 175.616 0 0 1 117.024-186.368z" fill="#1771B9" p-id="12978"></path><path d="M886.304 490.032a33.216 33.216 0 0 0-2.24-4.144 33.888 33.888 0 0 0-3.024-3.696 24 24 0 0 0-3.696-3.024 17.6 17.6 0 0 0-4-2.08 25.456 25.456 0 0 0-4.64-1.456 22.688 22.688 0 0 0-9.28 0 21.552 21.552 0 0 0-4.48 1.456 18.704 18.704 0 0 0-4.16 2.08 32 32 0 0 0-3.664 3.024 34.048 34.048 0 0 0-3.056 3.696 21.344 21.344 0 0 0-2.08 4.144 19.952 19.952 0 0 0-1.424 4.496 21.584 21.584 0 0 0-0.496 4.64 26.32 26.32 0 0 0 1.776 9.28 24.96 24.96 0 0 0 5.28 7.664 23.904 23.904 0 0 0 33.92 0 24 24 0 0 0 7.024-16.944 22.592 22.592 0 0 0-0.48-4.64 36.096 36.096 0 0 0-1.28-4.496z" fill="#666666" p-id="12979"></path></svg>